<svg viewBox="0 0 1500 1224.913152" xmlns:xlink="http://www.w3.org/1999/xlink" version="1.1" xmlns="http://www.w3.org/2000/svg" style="max-height: 500px" width="1500" height="1224.913152"><g transform="matrix(1,0,0,1,-1.2914867696038073,-0.6277444444364164)"><svg xmlns:xlink="http://www.w3.org/1999/xlink" xmlns="http://www.w3.org/2000/svg" width="1500" height="1678" preserveAspectRatio="xMidYMid meet" data-background-color="#000000" viewBox="0 0 303 339"><g transform="matrix(1,0,0,1,0.26088032745997225,0.126820838297931)" id="tight-bounds"><svg width="302.47823934508006" height="247.2" viewBox="0 0 302.47823934508006 247.2"><rect data-fill-palette-color="tertiary" mask="url(#8649ee81-252a-4d05-8b88-a3290999e694)" fill="url(#8d1acd55-420e-4bd1-aec1-b88899217105)" height="338.74635832340414" width="302.47823934508006"/><g><svg width="302.47823934508006" height="247.2" viewBox="0 0 353.364435956511 288.7866867963185"><g><svg width="353.364435956511" height="288.7866867963185" viewBox="0 0 353.364435956511 288.7866867963185"><g id="textblocktransform"><svg id="textblock" width="353.364435956511" height="288.7866867963185" viewBox="0 0 353.364435956511 288.7866867963185"><g><rect data-stroke-palette-color="tertiary" data-fill-palette-color="none" stroke="url(#8d1acd55-420e-4bd1-aec1-b88899217105)" stroke-width="8.962371322224001" fill="none" height="246.672304" width="353.364435956511"/><rect data-fill-palette-color="tertiary" fill="url(#8d1acd55-420e-4bd1-aec1-b88899217105)" y="246.672304" height="149.061670452" width="353.364435956511"/></g><g><svg width="353.364435956511" height="245.672304" viewBox="0 0 353.364435956511 245.672304"><g transform="matrix(1,0,0,1,23.461705032,23.461705032)"><svg data-palette-color="url(#eb50a414-9ecf-464a-9b29-bfd806d4d9f3)" height="198.748893936" viewBox="-5 -32.95 52.5 34.050000000000004" width="306.441025892511"/></g></svg></g><g transform="matrix(1,0,0,1,0,245.672304)"><svg width="353.364435956511" height="43.114382796318544" viewBox="0 0 353.364435956511 43.114382796318544"><g transform="matrix(1,0,0,1,20,3.2)"><svg data-palette-color="#000000" height="36.714382796318546" viewBox="0.75 -38.2 381.9 44.75" width="313.364435956511"><path id="text-1" data-fill-palette-color="quaternary" class="slogan-text-1" fill="#000000" transform="matrix(1,0,0,1,0,0)" opacity="1" d="M4.2-7.05L3.7-23.25Q0.75-23.25 0.75-28.85L0.75-28.85Q0.75-30.4 1.1-31.95L1.1-31.95 1.65-34.85Q7.5-35.85 11.5-35.85L11.5-35.85Q13.3-35.85 14.33-34.6 15.35-33.35 15.5-31.9 15.65-30.45 15.65-29.55L15.65-29.55Q15.65-26.95 15.25-25L15.25-25 15-23.75Q13.8-23.75 13.25-23.7L13.25-23.7 12.3-7.6Q13.65-7.55 14.28-6.8 14.9-6.05 14.9-5.1L14.9-5.1Q14.9-2.9 14.1-1L14.1-1 13.75-0.25Q9.7 0 5.15 0L5.15 0Q3.8 0 2.98-0.7 2.15-1.4 1.98-2.35 1.8-3.3 1.8-3.8L1.8-3.8Q1.8-5.3 2-6.1L2-6.1 2.2-6.8 4.2-7.05ZM31.25-25.4L31.25-25.4Q31.75-24.15 31.75-22.78 31.75-21.4 31.67-20.78 31.6-20.15 31.05-19.43 30.5-18.7 29.6-18.7 28.7-18.7 27-18.8L27-18.8 27-11.45Q27-6.55 31.25-4.95L31.25-4.95Q31.25-3.1 29.97-1.55 28.7 0 26.5 0L26.5 0Q23.3 0 21.35-2.35 19.4-4.7 19.4-8.45L19.4-8.45 19.4-19.35Q18.1-19.7 17.05-20.2L17.05-20.2 17-20.8Q17-24.2 19.35-25.35L19.35-25.35Q19.15-28.8 18.5-30.8L18.5-30.8 18.3-31.5Q18.5-31.75 18.87-32.15 19.25-32.55 20.5-33.2 21.75-33.85 23.1-33.85L23.1-33.85Q27-33.85 27-27.6L27-27.6 27-25.55Q28.6-25.4 31.25-25.4ZM33.05-31.8L33.05-31.8Q34.49-33.1 36.3-33.1 38.09-33.1 38.84-32.35 39.59-31.6 39.59-30L39.59-30Q39.59-26.9 38.8-21.9L38.8-21.9 38.55-20.1Q37.59-19.75 36.84-19.75L36.84-19.75Q35.09-19.75 34.24-21.65L34.24-21.65Q33.05-24.35 33.05-31.8ZM48.24-20.55L48.24-20.1Q48.24-18.1 51.84-16.5L51.84-16.5Q53.29-15.8 54.77-14.98 56.24-14.15 57.29-12.58 58.34-11 58.34-8.75L58.34-8.75Q58.34-4.8 55.67-2.4 52.99 0 49.07 0 45.14 0 42.99-1.73 40.84-3.45 40.84-5.35L40.84-5.35Q40.84-6.65 41.47-7.68 42.09-8.7 42.74-9.05L42.74-9.05 43.34-9.4Q43.64-8.95 44.22-8.28 44.79-7.6 46.49-6.5 48.19-5.4 49.42-5.4 50.64-5.4 51.12-5.78 51.59-6.15 51.59-6.6L51.59-6.6Q51.59-7.45 50.02-8.4 48.44-9.35 46.59-10.18 44.74-11 43.17-12.6 41.59-14.2 41.59-16.25 41.59-18.3 42.82-20.15 44.04-22 45.69-22.75L45.69-22.75Q45.94-24.35 47.72-25.55 49.49-26.75 52.19-26.75 54.89-26.75 56.54-25.5 58.19-24.25 58.19-22.15 58.19-20.05 57.59-19.1 56.99-18.15 55.69-17.6L55.69-17.6Q53.49-20.05 48.24-20.55L48.24-20.55ZM94.84-10.5L94.84-10.5Q94.84-5.9 91.69-2.95 88.54 0 82.64 0 76.74 0 74.34-1.73 71.94-3.45 71.94-5.55L71.94-5.55Q71.94-7.45 72.44-8.3L72.44-8.3Q73.29-9.75 74.09-10.25L74.09-10.25Q76.04-8.8 78.56-7.6 81.09-6.4 82.39-6.4 83.69-6.4 84.24-6.65 84.79-6.9 84.89-7.18 84.99-7.45 84.99-7.95L84.99-7.95Q84.99-8.9 83.64-9.78 82.29-10.65 80.36-11.58 78.44-12.5 76.54-13.68 74.64-14.85 73.29-16.9 71.94-18.95 71.94-21.43 71.94-23.9 73.09-26 74.24-28.1 75.99-29.45L75.99-29.45Q76.09-31.85 78.86-33.75 81.64-35.65 86.49-35.65L86.49-35.65Q95.39-35.65 95.39-28.2L95.39-28.2Q95.39-23.65 91.39-22L91.39-22Q88.64-25 81.14-26.4L81.14-26.4Q81.34-23.5 84.04-21.6L84.04-21.6Q85.29-20.75 86.74-19.98 88.19-19.2 89.61-18.35 91.04-17.5 92.24-16.5L92.24-16.5Q94.84-14.25 94.84-10.5ZM101.94 0L101.94 0Q97.84 0 97.84-5.9L97.84-5.9Q97.84-20.9 98.19-25.65L98.19-25.65Q99.24-26.7 101.54-26.7L101.54-26.7Q105.49-26.7 105.49-20.45L105.49-20.45 105.49-5.6 106.59-3.05Q106.39-2.7 106.04-2.2 105.69-1.7 104.49-0.85 103.29 0 101.94 0ZM105.69-33.77Q105.69-31.7 104.69-30.38 103.69-29.05 101.66-29.05 99.64-29.05 98.66-30.53 97.69-32 97.04-35.05L97.04-35.05Q97.24-35.4 97.59-35.93 97.94-36.45 99.11-37.33 100.29-38.2 101.54-38.2L101.54-38.2Q103.84-38.2 104.76-37.02 105.69-35.85 105.69-33.77ZM116.68-20.2L116.68-5.9Q116.68-3.45 117.28-2.25L117.28-2.25Q116.98-1.45 115.61-0.73 114.23 0 112.56 0 110.88 0 109.96-1.03 109.03-2.05 109.03-3.8L109.03-3.8 109.03-16.5Q109.03-20.65 108.23-23.4L108.23-23.4 107.93-24.35Q108.13-24.6 108.51-25 108.88-25.4 110.13-26.05 111.38-26.7 112.73-26.7L112.73-26.7Q115.63-26.7 116.38-23.3L116.38-23.3Q118.08-26.5 122.16-26.5 126.23-26.5 127.88-22.8L127.88-22.8Q128.48-24.35 129.98-25.43 131.48-26.5 134.08-26.5 136.68-26.5 138.48-24.53 140.28-22.55 140.28-19.1L140.28-19.1 140.28-5.6 141.33-3.05Q141.13-2.7 140.78-2.2 140.43-1.7 139.26-0.85 138.08 0 136.73 0L136.73 0Q132.58 0 132.58-5.9L132.58-5.9 132.58-15.55Q132.58-18.2 131.68-19.15 130.78-20.1 128.53-20.2L128.53-20.2 128.58-19.1 128.58-5.9Q128.58-3.55 129.18-2.25L129.18-2.25Q129.03-2 128.76-1.63 128.48-1.25 127.28-0.63 126.08 0 124.41 0 122.73 0 121.81-1.05 120.88-2.1 120.88-3.8L120.88-3.8 120.88-15.55Q120.88-18.2 119.98-19.15 119.08-20.1 116.68-20.2L116.68-20.2ZM151.68 0L151.68 5.45Q150.08 6.55 147.93 6.55 145.78 6.55 144.91 5.7 144.03 4.85 144.03 2.95L144.03 2.95 144.03-20.9 142.93-24.35Q143.13-24.6 143.5-25 143.88-25.4 145.13-26.05 146.38-26.7 147.73-26.7L147.73-26.7Q150.33-26.7 151.23-23.85L151.23-23.85Q153.88-26.5 157.16-26.5 160.43-26.5 162.21-24.48 163.98-22.45 163.98-19.1L163.98-19.1 163.98-12.6Q163.98-8 160.38-4 156.78 0 152.38 0L152.38 0 151.68 0ZM151.68-19.75L151.68-6.4Q152.43-5.8 153.63-5.8 154.83-5.8 155.58-6.55 156.33-7.3 156.33-8.65L156.33-8.65 156.33-15.9Q156.33-18.55 155.03-19.5L155.03-19.5Q154.23-20 153.38-20 152.53-20 151.68-19.75L151.68-19.75ZM167.18-5.9L167.18-5.9 167.18-24.9Q167.18-29.05 166.38-31.8L166.38-31.8 166.08-32.75Q166.28-33 166.65-33.4 167.03-33.8 168.28-34.48 169.53-35.15 170.88-35.15L170.88-35.15Q174.83-35.15 174.83-28.9L174.83-28.9 174.83-5.6 175.93-3.05Q175.73-2.7 175.38-2.2 175.03-1.7 173.83-0.85 172.63 0 171.28 0L171.28 0Q167.18 0 167.18-5.9ZM195.07-7.15L195.07-7.15Q195.63-6.6 195.63-5.7 195.63-4.8 195.15-3.88 194.68-2.95 193.75-2.08 192.82-1.2 191.13-0.6 189.43 0 187.4 0 185.38 0 183.78-0.58 182.18-1.15 180.72-2.4L180.72-2.4Q177.57-5.2 177.57-11.55 177.57-17.9 179.72-20.98 181.88-24.05 184.63-24.35L184.63-24.35Q186.63-26.5 189.45-26.5 192.28-26.5 194.05-24.45 195.82-22.4 195.82-18.85L195.82-18.85Q195.82-14.7 192.78-12.3L192.78-12.3Q190.28-10.3 186.78-9.25L186.78-9.25Q188.53-6.95 192.57-6.95L192.57-6.95Q193.72-6.95 195.07-7.15ZM188.88-16.4L188.88-16.4Q188.88-19.45 185.13-19.75L185.13-19.75 185.13-15.25Q185.13-13 185.53-11.65L185.53-11.65Q188.88-13.5 188.88-16.4ZM207.37-2.05L207.37-2.05Q207.37 1 205.87 3 204.37 5 201.97 5L201.97 5Q201.02 5 200.35 4.7 199.67 4.4 199.52 4.1L199.52 4.1 199.32 3.75Q200.07 2.4 200.07 0.88 200.07-0.65 199.5-1.75 198.92-2.85 198.32-3.3L198.32-3.3 197.77-3.75Q197.77-5.6 199.05-6.65 200.32-7.7 202.57-7.7L202.57-7.7Q207.37-7.7 207.37-2.05ZM243.32-32.7L243.32-32.7Q243.57-30.35 243.57-29.55 243.57-28.75 243.54-27.9 243.52-27.05 243.17-26.18 242.82-25.3 242.22-24.5L242.22-24.5Q241.07-22.95 238.07-22.95L238.07-22.95Q236.02-22.95 234.74-23.93 233.47-24.9 232.32-26.75L232.32-26.75Q231.27-23.1 231.27-19.45 231.27-15.8 231.62-14L231.62-14Q232.57-8.7 236.27-8.7L236.27-8.7Q237.12-8.7 238.07-8.95L238.07-8.95 237.12-14.7Q237.22-14.95 237.44-15.28 237.67-15.6 238.77-16.18 239.87-16.75 241.42-16.75L241.42-16.75Q244.32-16.75 244.32-14.1L244.32-14.1 243.77-5Q243.57-1.3 242.47-0.4L242.47-0.4Q241.22 0.7 239.57-0.05L239.57-0.05 239.17-2.5Q236.67 0 232.27 0L232.27 0Q228.02 0 224.62-3.1L224.62-3.1Q222.82-4.75 221.74-8.05 220.67-11.35 220.67-15.9L220.67-15.9Q220.67-22.35 223.19-26.45 225.72-30.55 229.37-32.35L229.37-32.35Q229.87-33.45 231.04-34.45 232.22-35.45 234.24-35.45 236.27-35.45 238.87-34.08 241.47-32.7 243.32-32.7ZM266.32-14.5L266.32-14.5Q266.32-7.45 263.22-3.73 260.12 0 255.47 0L255.47 0Q252.22 0 249.62-2.3L249.62-2.3Q248.22-3.5 247.37-5.93 246.52-8.35 246.52-11.7L246.52-11.7Q246.52-16.75 248.42-19.43 250.32-22.1 252.52-22.65L252.52-22.65Q253.32-25.1 255.87-26.1L255.87-26.1Q257.02-26.5 258.42-26.5L258.42-26.5Q266.32-26.5 266.32-14.5ZM253.67-13.6L253.67-13.6Q253.67-6 256.37-6L256.37-6Q258.77-6 258.77-13.15L258.77-13.15Q258.77-16.65 257.64-18.07 256.52-19.5 254.52-19.5L254.52-19.5Q253.67-17.9 253.67-13.6ZM302.16-32.7L302.16-32.7Q302.41-30.35 302.41-29.55 302.41-28.75 302.38-27.9 302.36-27.05 302.01-26.18 301.66-25.3 301.06-24.5L301.06-24.5Q299.91-22.95 296.91-22.95L296.91-22.95Q294.86-22.95 293.58-23.93 292.31-24.9 291.16-26.75L291.16-26.75Q290.11-23.1 290.11-19.45 290.11-15.8 290.46-14L290.46-14Q291.41-8.7 295.11-8.7L295.11-8.7Q295.96-8.7 296.91-8.95L296.91-8.95 295.96-14.7Q296.06-14.95 296.29-15.28 296.51-15.6 297.61-16.18 298.71-16.75 300.26-16.75L300.26-16.75Q303.16-16.75 303.16-14.1L303.16-14.1 302.61-5Q302.41-1.3 301.31-0.4L301.31-0.4Q300.06 0.7 298.41-0.05L298.41-0.05 298.01-2.5Q295.51 0 291.11 0L291.11 0Q286.86 0 283.46-3.1L283.46-3.1Q281.66-4.75 280.58-8.05 279.51-11.35 279.51-15.9L279.51-15.9Q279.51-22.35 282.04-26.45 284.56-30.55 288.21-32.35L288.21-32.35Q288.71-33.45 289.88-34.45 291.06-35.45 293.08-35.45 295.11-35.45 297.71-34.08 300.31-32.7 302.16-32.7ZM322.46-7.15L322.46-7.15Q323.01-6.6 323.01-5.7 323.01-4.8 322.53-3.88 322.06-2.95 321.13-2.08 320.21-1.2 318.51-0.6 316.81 0 314.78 0 312.76 0 311.16-0.58 309.56-1.15 308.11-2.4L308.11-2.4Q304.96-5.2 304.96-11.55 304.96-17.9 307.11-20.98 309.26-24.05 312.01-24.35L312.01-24.35Q314.01-26.5 316.83-26.5 319.66-26.5 321.43-24.45 323.21-22.4 323.21-18.85L323.21-18.85Q323.21-14.7 320.16-12.3L320.16-12.3Q317.66-10.3 314.16-9.25L314.16-9.25Q315.91-6.95 319.96-6.95L319.96-6.95Q321.11-6.95 322.46-7.15ZM316.26-16.4L316.26-16.4Q316.26-19.45 312.51-19.75L312.51-19.75 312.51-15.25Q312.51-13 312.91-11.65L312.91-11.65Q316.26-13.5 316.26-16.4ZM338.75-25.4L338.75-25.4Q339.25-24.15 339.25-22.78 339.25-21.4 339.18-20.78 339.11-20.15 338.56-19.43 338-18.7 337.11-18.7 336.2-18.7 334.5-18.8L334.5-18.8 334.5-11.45Q334.5-6.55 338.75-4.95L338.75-4.95Q338.75-3.1 337.48-1.55 336.2 0 334 0L334 0Q330.81 0 328.86-2.35 326.9-4.7 326.9-8.45L326.9-8.45 326.9-19.35Q325.61-19.7 324.56-20.2L324.56-20.2 324.5-20.8Q324.5-24.2 326.86-25.35L326.86-25.35Q326.65-28.8 326-30.8L326-30.8 325.81-31.5Q326-31.75 326.38-32.15 326.75-32.55 328-33.2 329.25-33.85 330.61-33.85L330.61-33.85Q334.5-33.85 334.5-27.6L334.5-27.6 334.5-25.55Q336.11-25.4 338.75-25.4ZM355.1-7.05L354.6-23.25Q351.65-23.25 351.65-28.85L351.65-28.85Q351.65-30.4 352-31.95L352-31.95 352.55-34.85Q358.4-35.85 362.4-35.85L362.4-35.85Q364.2-35.85 365.22-34.6 366.25-33.35 366.4-31.9 366.55-30.45 366.55-29.55L366.55-29.55Q366.55-26.95 366.15-25L366.15-25 365.9-23.75Q364.7-23.75 364.15-23.7L364.15-23.7 363.2-7.6Q364.55-7.55 365.17-6.8 365.8-6.05 365.8-5.1L365.8-5.1Q365.8-2.9 365-1L365-1 364.65-0.25Q360.6 0 356.05 0L356.05 0Q354.7 0 353.88-0.7 353.05-1.4 352.88-2.35 352.7-3.3 352.7-3.8L352.7-3.8Q352.7-5.3 352.9-6.1L352.9-6.1 353.1-6.8 355.1-7.05ZM382.15-25.4L382.15-25.4Q382.65-24.15 382.65-22.78 382.65-21.4 382.57-20.78 382.5-20.15 381.95-19.43 381.4-18.7 380.5-18.7 379.6-18.7 377.9-18.8L377.9-18.8 377.9-11.45Q377.9-6.55 382.15-4.95L382.15-4.95Q382.15-3.1 380.87-1.55 379.6 0 377.4 0L377.4 0Q374.2 0 372.25-2.35 370.3-4.7 370.3-8.45L370.3-8.45 370.3-19.35Q369-19.7 367.95-20.2L367.95-20.2 367.9-20.8Q367.9-24.2 370.25-25.35L370.25-25.35Q370.05-28.8 369.4-30.8L369.4-30.8 369.2-31.5Q369.4-31.75 369.77-32.15 370.15-32.55 371.4-33.2 372.65-33.85 374-33.85L374-33.85Q377.9-33.85 377.9-27.6L377.9-27.6 377.9-25.55Q379.5-25.4 382.15-25.4Z"/></svg></g></svg></g></svg></g></svg></g></svg></g><defs/><mask id="bd8d0fb9-bacc-4049-aa3f-add57f5e7fe9"><g id="SvgjsG3797"><svg width="302.47823934508006" height="247.2" viewBox="0 0 302.47823934508006 247.2"><g><svg width="302.47823934508006" height="247.2" viewBox="0 0 353.364435956511 288.7866867963185"><g><svg width="353.364435956511" height="288.7866867963185" viewBox="0 0 353.364435956511 288.7866867963185"><g id="SvgjsG3796"><svg id="SvgjsSvg3795" width="353.364435956511" height="288.7866867963185" viewBox="0 0 353.364435956511 288.7866867963185"><g><rect data-stroke-palette-color="tertiary" stroke="url(#8d1acd55-420e-4bd1-aec1-b88899217105)" stroke-width="8.962371322224001" fill="black" height="246.672304" width="353.364435956511"/><rect fill="black" y="246.672304" height="149.061670452" width="353.364435956511"/></g><g><svg width="353.364435956511" height="245.672304" viewBox="0 0 353.364435956511 245.672304"><g transform="matrix(1,0,0,1,23.461705032,23.461705032)"><svg data-palette-color="url(#eb50a414-9ecf-464a-9b29-bfd806d4d9f3)" height="198.748893936" viewBox="-5 -32.95 52.5 34.050000000000004" width="306.441025892511"><path id="SvgjsPath3794" class="wordmark-text-0" fill="white" transform="matrix(1,0,0,1,0,0)" opacity="1" d="M6.15 1.1L5.1 0.85Q6.3-4.6 6.3-14.83 6.3-25.05 5.85-29.9L5.85-29.9Q0.3-29.8-1.25-28.3L-1.25-28.3Q-1.6-27.6-1.6-26.1-1.6-24.6-1.1-24.05L-1.1-24.05-1.15-23.7Q-2.4-22.95-3.65-21.6L-3.65-21.6Q-4.25-21.65-4.63-22.1-5-22.55-5-23.15L-5-23.15Q-5-25.45-2.38-28.6 0.25-31.75 2.65-32.95L2.65-32.95Q6.9-32.55 15.25-32.55L15.25-32.55Q28.9-32.55 28.9-19.3L28.9-19.3Q28.9-12.35 25.25-6.7 21.6-1.05 15.35 0.75L15.35 0.75Q11.75 0.75 7.3-1.15L7.3-1.15Q6.45 0.15 6.15 1.1L6.15 1.1ZM14.45-30.2L14.45-30.2Q12.15-30.2 10.6-29.95L10.6-29.95Q10.15-25.25 10.15-16.95 10.15-8.65 10.4-4.25L10.4-4.25Q13.1-2.85 16.55-2.85 20-2.85 21.9-4.55L21.9-4.55Q24.45-9.2 24.45-16.05 24.45-22.9 22.33-26.55 20.2-30.2 14.45-30.2ZM41.9-30.8L41.9-30.8Q41.35-27.05 41.35-16.8 41.35-6.55 42-1.75L42-1.75Q44.65-1.5 47.5-0.8L47.5-0.8 47.35 0.4Q43.65 0 39.32 0 35 0 32.35 0.4L32.35 0.4 32.15-0.85Q34.4-1.55 36.95-1.9L36.95-1.9Q37.5-6 37.5-14.8L37.5-14.8 37.5-17.75Q37.5-25.85 36.85-30.65L36.85-30.65Q34.3-31 32.05-31.7L32.05-31.7 32.25-32.95Q34.9-32.55 39.22-32.55 43.55-32.55 47.25-32.95L47.25-32.95 47.4-31.75Q44.55-31.05 41.9-30.8Z"/></svg></g></svg></g><g transform="matrix(1,0,0,1,0,245.672304)"><svg width="353.364435956511" height="43.114382796318544" viewBox="0 0 353.364435956511 43.114382796318544"><g transform="matrix(1,0,0,1,20,3.2)"><svg data-palette-color="#000000" height="36.714382796318546" viewBox="0.75 -38.2 381.9 44.75" width="313.364435956511"><path id="SvgjsPath3793" class="slogan-text-1" fill="black" transform="matrix(1,0,0,1,0,0)" opacity="1" d="M4.2-7.05L3.7-23.25Q0.75-23.25 0.75-28.85L0.75-28.85Q0.75-30.4 1.1-31.95L1.1-31.95 1.65-34.85Q7.5-35.85 11.5-35.85L11.5-35.85Q13.3-35.85 14.33-34.6 15.35-33.35 15.5-31.9 15.65-30.45 15.65-29.55L15.65-29.55Q15.65-26.95 15.25-25L15.25-25 15-23.75Q13.8-23.75 13.25-23.7L13.25-23.7 12.3-7.6Q13.65-7.55 14.28-6.8 14.9-6.05 14.9-5.1L14.9-5.1Q14.9-2.9 14.1-1L14.1-1 13.75-0.25Q9.7 0 5.15 0L5.15 0Q3.8 0 2.98-0.7 2.15-1.4 1.98-2.35 1.8-3.3 1.8-3.8L1.8-3.8Q1.8-5.3 2-6.1L2-6.1 2.2-6.8 4.2-7.05ZM31.25-25.4L31.25-25.4Q31.75-24.15 31.75-22.78 31.75-21.4 31.67-20.78 31.6-20.15 31.05-19.43 30.5-18.7 29.6-18.7 28.7-18.7 27-18.8L27-18.8 27-11.45Q27-6.55 31.25-4.95L31.25-4.95Q31.25-3.1 29.97-1.55 28.7 0 26.5 0L26.5 0Q23.3 0 21.35-2.35 19.4-4.7 19.4-8.45L19.4-8.45 19.4-19.35Q18.1-19.7 17.05-20.2L17.05-20.2 17-20.8Q17-24.2 19.35-25.35L19.35-25.35Q19.15-28.8 18.5-30.8L18.5-30.8 18.3-31.5Q18.5-31.75 18.87-32.15 19.25-32.55 20.5-33.2 21.75-33.85 23.1-33.85L23.1-33.85Q27-33.85 27-27.6L27-27.6 27-25.55Q28.6-25.4 31.25-25.4ZM33.05-31.8L33.05-31.8Q34.49-33.1 36.3-33.1 38.09-33.1 38.84-32.35 39.59-31.6 39.59-30L39.59-30Q39.59-26.9 38.8-21.9L38.8-21.9 38.55-20.1Q37.59-19.75 36.84-19.75L36.84-19.75Q35.09-19.75 34.24-21.65L34.24-21.65Q33.05-24.35 33.05-31.8ZM48.24-20.55L48.24-20.1Q48.24-18.1 51.84-16.5L51.84-16.5Q53.29-15.8 54.77-14.98 56.24-14.15 57.29-12.58 58.34-11 58.34-8.75L58.34-8.75Q58.34-4.8 55.67-2.4 52.99 0 49.07 0 45.14 0 42.99-1.73 40.84-3.45 40.84-5.35L40.84-5.35Q40.84-6.65 41.47-7.68 42.09-8.7 42.74-9.05L42.74-9.05 43.34-9.4Q43.64-8.95 44.22-8.28 44.79-7.6 46.49-6.5 48.19-5.4 49.42-5.4 50.64-5.4 51.12-5.78 51.59-6.15 51.59-6.6L51.59-6.6Q51.59-7.45 50.02-8.4 48.44-9.35 46.59-10.18 44.74-11 43.17-12.6 41.59-14.2 41.59-16.25 41.59-18.3 42.82-20.15 44.04-22 45.69-22.75L45.69-22.75Q45.94-24.35 47.72-25.55 49.49-26.75 52.19-26.75 54.89-26.75 56.54-25.5 58.19-24.25 58.19-22.15 58.19-20.05 57.59-19.1 56.99-18.15 55.69-17.6L55.69-17.6Q53.49-20.05 48.24-20.55L48.24-20.55ZM94.84-10.5L94.84-10.5Q94.84-5.9 91.69-2.95 88.54 0 82.64 0 76.74 0 74.34-1.73 71.94-3.45 71.94-5.55L71.94-5.55Q71.94-7.45 72.44-8.3L72.44-8.3Q73.29-9.75 74.09-10.25L74.09-10.25Q76.04-8.8 78.56-7.6 81.09-6.4 82.39-6.4 83.69-6.4 84.24-6.65 84.79-6.9 84.89-7.18 84.99-7.45 84.99-7.95L84.99-7.95Q84.99-8.9 83.64-9.78 82.29-10.65 80.36-11.58 78.44-12.5 76.54-13.68 74.64-14.85 73.29-16.9 71.94-18.95 71.94-21.43 71.94-23.9 73.09-26 74.24-28.1 75.99-29.45L75.99-29.45Q76.09-31.85 78.86-33.75 81.64-35.65 86.49-35.65L86.49-35.65Q95.39-35.65 95.39-28.2L95.39-28.2Q95.39-23.65 91.39-22L91.39-22Q88.64-25 81.14-26.4L81.14-26.4Q81.34-23.5 84.04-21.6L84.04-21.6Q85.29-20.75 86.74-19.98 88.19-19.2 89.61-18.35 91.04-17.5 92.24-16.5L92.24-16.5Q94.84-14.25 94.84-10.5ZM101.94 0L101.94 0Q97.84 0 97.84-5.9L97.84-5.9Q97.84-20.9 98.19-25.65L98.19-25.65Q99.24-26.7 101.54-26.7L101.54-26.7Q105.49-26.7 105.49-20.45L105.49-20.45 105.49-5.6 106.59-3.05Q106.39-2.7 106.04-2.2 105.69-1.7 104.49-0.85 103.29 0 101.94 0ZM105.69-33.77Q105.69-31.7 104.69-30.38 103.69-29.05 101.66-29.05 99.64-29.05 98.66-30.53 97.69-32 97.04-35.05L97.04-35.05Q97.24-35.4 97.59-35.93 97.94-36.45 99.11-37.33 100.29-38.2 101.54-38.2L101.54-38.2Q103.84-38.2 104.76-37.02 105.69-35.85 105.69-33.77ZM116.68-20.2L116.68-5.9Q116.68-3.45 117.28-2.25L117.28-2.25Q116.98-1.45 115.61-0.73 114.23 0 112.56 0 110.88 0 109.96-1.03 109.03-2.05 109.03-3.8L109.03-3.8 109.03-16.5Q109.03-20.65 108.23-23.4L108.23-23.4 107.93-24.35Q108.13-24.6 108.51-25 108.88-25.4 110.13-26.05 111.38-26.7 112.73-26.7L112.73-26.7Q115.63-26.7 116.38-23.3L116.38-23.3Q118.08-26.5 122.16-26.5 126.23-26.5 127.88-22.8L127.88-22.8Q128.48-24.35 129.98-25.43 131.48-26.5 134.08-26.5 136.68-26.5 138.48-24.53 140.28-22.55 140.28-19.1L140.28-19.1 140.28-5.6 141.33-3.05Q141.13-2.7 140.78-2.2 140.43-1.7 139.26-0.85 138.08 0 136.73 0L136.73 0Q132.58 0 132.58-5.9L132.58-5.9 132.58-15.55Q132.58-18.2 131.68-19.15 130.78-20.1 128.53-20.2L128.53-20.2 128.58-19.1 128.58-5.9Q128.58-3.55 129.18-2.25L129.18-2.25Q129.03-2 128.76-1.63 128.48-1.25 127.28-0.63 126.08 0 124.41 0 122.73 0 121.81-1.05 120.88-2.1 120.88-3.8L120.88-3.8 120.88-15.55Q120.88-18.2 119.98-19.15 119.08-20.1 116.68-20.2L116.68-20.2ZM151.68 0L151.68 5.45Q150.08 6.55 147.93 6.55 145.78 6.55 144.91 5.7 144.03 4.85 144.03 2.95L144.03 2.95 144.03-20.9 142.93-24.35Q143.13-24.6 143.5-25 143.88-25.4 145.13-26.05 146.38-26.7 147.73-26.7L147.73-26.7Q150.33-26.7 151.23-23.85L151.23-23.85Q153.88-26.5 157.16-26.5 160.43-26.5 162.21-24.48 163.98-22.45 163.98-19.1L163.98-19.1 163.98-12.6Q163.98-8 160.38-4 156.78 0 152.38 0L152.38 0 151.68 0ZM151.68-19.75L151.68-6.4Q152.43-5.8 153.63-5.8 154.83-5.8 155.58-6.55 156.33-7.3 156.33-8.65L156.33-8.65 156.33-15.9Q156.33-18.55 155.03-19.5L155.03-19.5Q154.23-20 153.38-20 152.53-20 151.68-19.75L151.68-19.75ZM167.18-5.9L167.18-5.9 167.18-24.9Q167.18-29.05 166.38-31.8L166.38-31.8 166.08-32.75Q166.28-33 166.65-33.4 167.03-33.8 168.28-34.48 169.53-35.15 170.88-35.15L170.88-35.15Q174.83-35.15 174.83-28.9L174.83-28.9 174.83-5.6 175.93-3.05Q175.73-2.7 175.38-2.2 175.03-1.7 173.83-0.85 172.63 0 171.28 0L171.28 0Q167.18 0 167.18-5.9ZM195.07-7.15L195.07-7.15Q195.63-6.6 195.63-5.7 195.63-4.8 195.15-3.88 194.68-2.95 193.75-2.08 192.82-1.2 191.13-0.6 189.43 0 187.4 0 185.38 0 183.78-0.58 182.18-1.15 180.72-2.4L180.72-2.4Q177.57-5.2 177.57-11.55 177.57-17.9 179.72-20.98 181.88-24.05 184.63-24.35L184.63-24.35Q186.63-26.5 189.45-26.5 192.28-26.5 194.05-24.45 195.82-22.4 195.82-18.85L195.82-18.85Q195.82-14.7 192.78-12.3L192.78-12.3Q190.28-10.3 186.78-9.25L186.78-9.25Q188.53-6.95 192.57-6.95L192.57-6.95Q193.72-6.95 195.07-7.15ZM188.88-16.4L188.88-16.4Q188.88-19.45 185.13-19.75L185.13-19.75 185.13-15.25Q185.13-13 185.53-11.65L185.53-11.65Q188.88-13.5 188.88-16.4ZM207.37-2.05L207.37-2.05Q207.37 1 205.87 3 204.37 5 201.97 5L201.97 5Q201.02 5 200.35 4.7 199.67 4.4 199.52 4.1L199.52 4.1 199.32 3.75Q200.07 2.4 200.07 0.88 200.07-0.65 199.5-1.75 198.92-2.85 198.32-3.3L198.32-3.3 197.77-3.75Q197.77-5.6 199.05-6.65 200.32-7.7 202.57-7.7L202.57-7.7Q207.37-7.7 207.37-2.05ZM243.32-32.7L243.32-32.7Q243.57-30.35 243.57-29.55 243.57-28.75 243.54-27.9 243.52-27.05 243.17-26.18 242.82-25.3 242.22-24.5L242.22-24.5Q241.07-22.95 238.07-22.95L238.07-22.95Q236.02-22.95 234.74-23.93 233.47-24.9 232.32-26.75L232.32-26.75Q231.27-23.1 231.27-19.45 231.27-15.8 231.62-14L231.62-14Q232.57-8.7 236.27-8.7L236.27-8.7Q237.12-8.7 238.07-8.95L238.07-8.95 237.12-14.7Q237.22-14.95 237.44-15.28 237.67-15.6 238.77-16.18 239.87-16.75 241.42-16.75L241.42-16.75Q244.32-16.75 244.32-14.1L244.32-14.1 243.77-5Q243.57-1.3 242.47-0.4L242.47-0.4Q241.22 0.7 239.57-0.05L239.57-0.05 239.17-2.5Q236.67 0 232.27 0L232.27 0Q228.02 0 224.62-3.1L224.62-3.1Q222.82-4.75 221.74-8.05 220.67-11.35 220.67-15.9L220.67-15.9Q220.67-22.35 223.19-26.45 225.72-30.55 229.37-32.35L229.37-32.35Q229.87-33.45 231.04-34.45 232.22-35.45 234.24-35.45 236.27-35.45 238.87-34.08 241.47-32.7 243.32-32.7ZM266.32-14.5L266.32-14.5Q266.32-7.45 263.22-3.73 260.12 0 255.47 0L255.47 0Q252.22 0 249.62-2.3L249.62-2.3Q248.22-3.5 247.37-5.93 246.52-8.35 246.52-11.7L246.52-11.7Q246.52-16.75 248.42-19.43 250.32-22.1 252.52-22.65L252.52-22.65Q253.32-25.1 255.87-26.1L255.87-26.1Q257.02-26.5 258.42-26.5L258.42-26.5Q266.32-26.5 266.32-14.5ZM253.67-13.6L253.67-13.6Q253.67-6 256.37-6L256.37-6Q258.77-6 258.77-13.15L258.77-13.15Q258.77-16.65 257.64-18.07 256.52-19.5 254.52-19.5L254.52-19.5Q253.67-17.9 253.67-13.6ZM302.16-32.7L302.16-32.7Q302.41-30.35 302.41-29.55 302.41-28.75 302.38-27.9 302.36-27.05 302.01-26.18 301.66-25.3 301.06-24.5L301.06-24.5Q299.91-22.95 296.91-22.95L296.91-22.95Q294.86-22.95 293.58-23.93 292.31-24.9 291.16-26.75L291.16-26.75Q290.11-23.1 290.11-19.45 290.11-15.8 290.46-14L290.46-14Q291.41-8.7 295.11-8.7L295.11-8.7Q295.96-8.7 296.91-8.95L296.91-8.95 295.96-14.7Q296.06-14.95 296.29-15.28 296.51-15.6 297.61-16.18 298.71-16.75 300.26-16.75L300.26-16.75Q303.16-16.75 303.16-14.1L303.16-14.1 302.61-5Q302.41-1.3 301.31-0.4L301.31-0.4Q300.06 0.7 298.41-0.05L298.41-0.05 298.01-2.5Q295.51 0 291.11 0L291.11 0Q286.86 0 283.46-3.1L283.46-3.1Q281.66-4.75 280.58-8.05 279.51-11.35 279.51-15.9L279.51-15.9Q279.51-22.35 282.04-26.45 284.56-30.55 288.21-32.35L288.21-32.35Q288.71-33.45 289.88-34.45 291.06-35.45 293.08-35.45 295.11-35.45 297.71-34.08 300.31-32.7 302.16-32.7ZM322.46-7.15L322.46-7.15Q323.01-6.6 323.01-5.7 323.01-4.8 322.53-3.88 322.06-2.95 321.13-2.08 320.21-1.2 318.51-0.6 316.81 0 314.78 0 312.76 0 311.16-0.58 309.56-1.15 308.11-2.4L308.11-2.4Q304.96-5.2 304.96-11.55 304.96-17.9 307.11-20.98 309.26-24.05 312.01-24.35L312.01-24.35Q314.01-26.5 316.83-26.5 319.66-26.5 321.43-24.45 323.21-22.4 323.21-18.85L323.21-18.85Q323.21-14.7 320.16-12.3L320.16-12.3Q317.66-10.3 314.16-9.25L314.16-9.25Q315.91-6.95 319.96-6.95L319.96-6.95Q321.11-6.95 322.46-7.15ZM316.26-16.4L316.26-16.4Q316.26-19.45 312.51-19.75L312.51-19.75 312.51-15.25Q312.51-13 312.91-11.65L312.91-11.65Q316.26-13.5 316.26-16.4ZM338.75-25.4L338.75-25.4Q339.25-24.15 339.25-22.78 339.25-21.4 339.18-20.78 339.11-20.15 338.56-19.43 338-18.7 337.11-18.7 336.2-18.7 334.5-18.8L334.5-18.8 334.5-11.45Q334.5-6.55 338.75-4.95L338.75-4.95Q338.75-3.1 337.48-1.55 336.2 0 334 0L334 0Q330.81 0 328.86-2.35 326.9-4.7 326.9-8.45L326.9-8.45 326.9-19.35Q325.61-19.7 324.56-20.2L324.56-20.2 324.5-20.8Q324.5-24.2 326.86-25.35L326.86-25.35Q326.65-28.8 326-30.8L326-30.8 325.81-31.5Q326-31.75 326.38-32.15 326.75-32.55 328-33.2 329.25-33.85 330.61-33.85L330.61-33.85Q334.5-33.85 334.5-27.6L334.5-27.6 334.5-25.55Q336.11-25.4 338.75-25.4ZM355.1-7.05L354.6-23.25Q351.65-23.25 351.65-28.85L351.65-28.85Q351.65-30.4 352-31.95L352-31.95 352.55-34.85Q358.4-35.85 362.4-35.85L362.4-35.85Q364.2-35.85 365.22-34.6 366.25-33.35 366.4-31.9 366.55-30.45 366.55-29.55L366.55-29.55Q366.55-26.95 366.15-25L366.15-25 365.9-23.75Q364.7-23.75 364.15-23.7L364.15-23.7 363.2-7.6Q364.55-7.55 365.17-6.8 365.8-6.05 365.8-5.1L365.8-5.1Q365.8-2.9 365-1L365-1 364.65-0.25Q360.6 0 356.05 0L356.05 0Q354.7 0 353.88-0.7 353.05-1.4 352.88-2.35 352.7-3.3 352.7-3.8L352.7-3.8Q352.7-5.3 352.9-6.1L352.9-6.1 353.1-6.8 355.1-7.05ZM382.15-25.4L382.15-25.4Q382.65-24.15 382.65-22.78 382.65-21.4 382.57-20.78 382.5-20.15 381.95-19.43 381.4-18.7 380.5-18.7 379.6-18.7 377.9-18.8L377.9-18.8 377.9-11.45Q377.9-6.55 382.15-4.95L382.15-4.95Q382.15-3.1 380.87-1.55 379.6 0 377.4 0L377.4 0Q374.2 0 372.25-2.35 370.3-4.7 370.3-8.45L370.3-8.45 370.3-19.35Q369-19.7 367.95-20.2L367.95-20.2 367.9-20.8Q367.9-24.2 370.25-25.35L370.25-25.35Q370.05-28.8 369.4-30.8L369.4-30.8 369.2-31.5Q369.4-31.75 369.77-32.15 370.15-32.55 371.4-33.2 372.65-33.85 374-33.85L374-33.85Q377.9-33.85 377.9-27.6L377.9-27.6 377.9-25.55Q379.5-25.4 382.15-25.4Z"/></svg></g></svg></g></svg></g></svg></g></svg></g><defs><mask/></defs></svg><rect visibility="hidden" stroke="none" fill="black" height="247.2" width="302.47823934508006"/></g></mask><linearGradient id="eb50a414-9ecf-464a-9b29-bfd806d4d9f3" y2="0.5" y1="0.5" x2="1" x1="0"><stop offset="0" stop-color="#ffa62e"/><stop offset="1" stop-color="#f71b3d"/></linearGradient><rect data-fill-palette-color="primary" mask="url(#bd8d0fb9-bacc-4049-aa3f-add57f5e7fe9)" fill="url(#eb50a414-9ecf-464a-9b29-bfd806d4d9f3)" height="338.74635832340414" width="302.47823934508006"/><mask id="8649ee81-252a-4d05-8b88-a3290999e694"><g id="SvgjsG3826"><svg width="302.47823934508006" height="247.2" viewBox="0 0 302.47823934508006 247.2"><g><svg width="302.47823934508006" height="247.2" viewBox="0 0 353.364435956511 288.7866867963185"><g><svg width="353.364435956511" height="288.7866867963185" viewBox="0 0 353.364435956511 288.7866867963185"><g id="SvgjsG3825"><svg id="SvgjsSvg3824" width="353.364435956511" height="288.7866867963185" viewBox="0 0 353.364435956511 288.7866867963185"><g><rect data-stroke-palette-color="tertiary" stroke="url(#8d1acd55-420e-4bd1-aec1-b88899217105)" stroke-width="8.962371322224001" fill="black" height="246.672304" width="353.364435956511"/><rect fill="white" y="246.672304" height="149.061670452" width="353.364435956511"/></g><g><svg width="353.364435956511" height="245.672304" viewBox="0 0 353.364435956511 245.672304"><g transform="matrix(1,0,0,1,23.461705032,23.461705032)"><svg data-palette-color="url(#eb50a414-9ecf-464a-9b29-bfd806d4d9f3)" height="198.748893936" viewBox="-5 -32.95 52.5 34.050000000000004" width="306.441025892511"/></g></svg></g><g transform="matrix(1,0,0,1,0,245.672304)"><svg width="353.364435956511" height="43.114382796318544" viewBox="0 0 353.364435956511 43.114382796318544"><g transform="matrix(1,0,0,1,20,3.2)"><svg data-palette-color="#000000" height="36.714382796318546" viewBox="0.75 -38.2 381.9 44.75" width="313.364435956511"><path id="SvgjsPath3823" class="slogan-text-1" fill="black" transform="matrix(1,0,0,1,0,0)" opacity="1" d="M4.2-7.05L3.7-23.25Q0.75-23.25 0.75-28.85L0.75-28.85Q0.75-30.4 1.1-31.95L1.1-31.95 1.65-34.85Q7.5-35.85 11.5-35.85L11.5-35.85Q13.3-35.85 14.33-34.6 15.35-33.35 15.5-31.9 15.65-30.45 15.65-29.55L15.65-29.55Q15.65-26.95 15.25-25L15.25-25 15-23.75Q13.8-23.75 13.25-23.7L13.25-23.7 12.3-7.6Q13.65-7.55 14.28-6.8 14.9-6.05 14.9-5.1L14.9-5.1Q14.9-2.9 14.1-1L14.1-1 13.75-0.25Q9.7 0 5.15 0L5.15 0Q3.8 0 2.98-0.7 2.15-1.4 1.98-2.35 1.8-3.3 1.8-3.8L1.8-3.8Q1.8-5.3 2-6.1L2-6.1 2.2-6.8 4.2-7.05ZM31.25-25.4L31.25-25.4Q31.75-24.15 31.75-22.78 31.75-21.4 31.67-20.78 31.6-20.15 31.05-19.43 30.5-18.7 29.6-18.7 28.7-18.7 27-18.8L27-18.8 27-11.45Q27-6.55 31.25-4.95L31.25-4.95Q31.25-3.1 29.97-1.55 28.7 0 26.5 0L26.5 0Q23.3 0 21.35-2.35 19.4-4.7 19.4-8.45L19.4-8.45 19.4-19.35Q18.1-19.7 17.05-20.2L17.05-20.2 17-20.8Q17-24.2 19.35-25.35L19.35-25.35Q19.15-28.8 18.5-30.8L18.5-30.8 18.3-31.5Q18.5-31.75 18.87-32.15 19.25-32.55 20.5-33.2 21.75-33.85 23.1-33.85L23.1-33.85Q27-33.85 27-27.6L27-27.6 27-25.55Q28.6-25.4 31.25-25.4ZM33.05-31.8L33.05-31.8Q34.49-33.1 36.3-33.1 38.09-33.1 38.84-32.35 39.59-31.6 39.59-30L39.59-30Q39.59-26.9 38.8-21.9L38.8-21.9 38.55-20.1Q37.59-19.75 36.84-19.75L36.84-19.75Q35.09-19.75 34.24-21.65L34.24-21.65Q33.05-24.35 33.05-31.8ZM48.24-20.55L48.24-20.1Q48.24-18.1 51.84-16.5L51.84-16.5Q53.29-15.8 54.77-14.98 56.24-14.15 57.29-12.58 58.34-11 58.34-8.75L58.34-8.75Q58.34-4.8 55.67-2.4 52.99 0 49.07 0 45.14 0 42.99-1.73 40.84-3.45 40.84-5.35L40.84-5.35Q40.84-6.65 41.47-7.68 42.09-8.7 42.74-9.05L42.74-9.05 43.34-9.4Q43.64-8.95 44.22-8.28 44.79-7.6 46.49-6.5 48.19-5.4 49.42-5.4 50.64-5.4 51.12-5.78 51.59-6.15 51.59-6.6L51.59-6.6Q51.59-7.45 50.02-8.4 48.44-9.35 46.59-10.18 44.74-11 43.17-12.6 41.59-14.2 41.59-16.25 41.59-18.3 42.82-20.15 44.04-22 45.69-22.75L45.69-22.75Q45.94-24.35 47.72-25.55 49.49-26.75 52.19-26.75 54.89-26.75 56.54-25.5 58.19-24.25 58.19-22.15 58.19-20.05 57.59-19.1 56.99-18.15 55.69-17.6L55.69-17.6Q53.49-20.05 48.24-20.55L48.24-20.55ZM94.84-10.5L94.84-10.5Q94.84-5.9 91.69-2.95 88.54 0 82.64 0 76.74 0 74.34-1.73 71.94-3.45 71.94-5.55L71.94-5.55Q71.94-7.45 72.44-8.3L72.44-8.3Q73.29-9.75 74.09-10.25L74.09-10.25Q76.04-8.8 78.56-7.6 81.09-6.4 82.39-6.4 83.69-6.4 84.24-6.65 84.79-6.9 84.89-7.18 84.99-7.45 84.99-7.95L84.99-7.95Q84.99-8.9 83.64-9.78 82.29-10.65 80.36-11.58 78.44-12.5 76.54-13.68 74.64-14.85 73.29-16.9 71.94-18.95 71.94-21.43 71.94-23.9 73.09-26 74.24-28.1 75.99-29.45L75.99-29.45Q76.09-31.85 78.86-33.75 81.64-35.65 86.49-35.65L86.49-35.65Q95.39-35.65 95.39-28.2L95.39-28.2Q95.39-23.65 91.39-22L91.39-22Q88.64-25 81.14-26.4L81.14-26.4Q81.34-23.5 84.04-21.6L84.04-21.6Q85.29-20.75 86.74-19.98 88.19-19.2 89.61-18.35 91.04-17.5 92.24-16.5L92.24-16.5Q94.84-14.25 94.84-10.5ZM101.94 0L101.94 0Q97.84 0 97.84-5.9L97.84-5.9Q97.84-20.9 98.19-25.65L98.19-25.65Q99.24-26.7 101.54-26.7L101.54-26.7Q105.49-26.7 105.49-20.45L105.49-20.45 105.49-5.6 106.59-3.05Q106.39-2.7 106.04-2.2 105.69-1.7 104.49-0.85 103.29 0 101.94 0ZM105.69-33.77Q105.69-31.7 104.69-30.38 103.69-29.05 101.66-29.05 99.64-29.05 98.66-30.53 97.69-32 97.04-35.05L97.04-35.05Q97.24-35.4 97.59-35.93 97.94-36.45 99.11-37.33 100.29-38.2 101.54-38.2L101.54-38.2Q103.84-38.2 104.76-37.02 105.69-35.85 105.69-33.77ZM116.68-20.2L116.68-5.9Q116.68-3.45 117.28-2.25L117.28-2.25Q116.98-1.45 115.61-0.73 114.23 0 112.56 0 110.88 0 109.96-1.03 109.03-2.05 109.03-3.8L109.03-3.8 109.03-16.5Q109.03-20.65 108.23-23.4L108.23-23.4 107.93-24.35Q108.13-24.6 108.51-25 108.88-25.4 110.13-26.05 111.38-26.7 112.73-26.7L112.73-26.7Q115.63-26.7 116.38-23.3L116.38-23.3Q118.08-26.5 122.16-26.5 126.23-26.5 127.88-22.8L127.88-22.8Q128.48-24.35 129.98-25.43 131.48-26.5 134.08-26.5 136.68-26.5 138.48-24.53 140.28-22.55 140.28-19.1L140.28-19.1 140.28-5.6 141.33-3.05Q141.13-2.7 140.78-2.2 140.43-1.7 139.26-0.85 138.08 0 136.73 0L136.73 0Q132.58 0 132.58-5.9L132.58-5.9 132.58-15.55Q132.58-18.2 131.68-19.15 130.78-20.1 128.53-20.2L128.53-20.2 128.58-19.1 128.58-5.9Q128.58-3.55 129.18-2.25L129.18-2.25Q129.03-2 128.76-1.63 128.48-1.25 127.28-0.63 126.08 0 124.41 0 122.73 0 121.81-1.05 120.88-2.1 120.88-3.8L120.88-3.8 120.88-15.55Q120.88-18.2 119.98-19.15 119.08-20.1 116.68-20.2L116.68-20.2ZM151.68 0L151.68 5.45Q150.08 6.55 147.93 6.55 145.78 6.55 144.91 5.7 144.03 4.85 144.03 2.95L144.03 2.95 144.03-20.9 142.93-24.35Q143.13-24.6 143.5-25 143.88-25.4 145.13-26.05 146.38-26.7 147.73-26.7L147.73-26.7Q150.33-26.7 151.23-23.85L151.23-23.85Q153.88-26.5 157.16-26.5 160.43-26.5 162.21-24.48 163.98-22.45 163.98-19.1L163.98-19.1 163.98-12.6Q163.98-8 160.38-4 156.78 0 152.38 0L152.38 0 151.68 0ZM151.68-19.75L151.68-6.4Q152.43-5.8 153.63-5.8 154.83-5.8 155.58-6.55 156.33-7.3 156.33-8.65L156.33-8.65 156.33-15.9Q156.33-18.55 155.03-19.5L155.03-19.5Q154.23-20 153.38-20 152.53-20 151.68-19.75L151.68-19.75ZM167.18-5.9L167.18-5.9 167.18-24.9Q167.18-29.05 166.38-31.8L166.38-31.8 166.08-32.75Q166.28-33 166.65-33.4 167.03-33.8 168.28-34.48 169.53-35.15 170.88-35.15L170.88-35.15Q174.83-35.15 174.83-28.9L174.83-28.9 174.83-5.6 175.93-3.05Q175.73-2.7 175.38-2.2 175.03-1.7 173.83-0.85 172.63 0 171.28 0L171.28 0Q167.18 0 167.18-5.9ZM195.07-7.15L195.07-7.15Q195.63-6.6 195.63-5.7 195.63-4.8 195.15-3.88 194.68-2.95 193.75-2.08 192.82-1.2 191.13-0.6 189.43 0 187.4 0 185.38 0 183.78-0.58 182.18-1.15 180.72-2.4L180.72-2.4Q177.57-5.2 177.57-11.55 177.57-17.9 179.72-20.98 181.88-24.05 184.63-24.35L184.63-24.35Q186.63-26.5 189.45-26.5 192.28-26.5 194.05-24.45 195.82-22.4 195.82-18.85L195.82-18.85Q195.82-14.7 192.78-12.3L192.78-12.3Q190.28-10.3 186.78-9.25L186.78-9.25Q188.53-6.95 192.57-6.95L192.57-6.95Q193.72-6.95 195.07-7.15ZM188.88-16.4L188.88-16.4Q188.88-19.45 185.13-19.75L185.13-19.75 185.13-15.25Q185.13-13 185.53-11.65L185.53-11.65Q188.88-13.5 188.88-16.4ZM207.37-2.05L207.37-2.05Q207.37 1 205.87 3 204.37 5 201.97 5L201.97 5Q201.02 5 200.35 4.7 199.67 4.4 199.52 4.1L199.52 4.1 199.32 3.75Q200.07 2.4 200.07 0.88 200.07-0.65 199.5-1.75 198.92-2.85 198.32-3.3L198.32-3.3 197.77-3.75Q197.77-5.6 199.05-6.65 200.32-7.7 202.57-7.7L202.57-7.7Q207.37-7.7 207.37-2.05ZM243.32-32.7L243.32-32.7Q243.57-30.35 243.57-29.55 243.57-28.75 243.54-27.9 243.52-27.05 243.17-26.18 242.82-25.3 242.22-24.5L242.22-24.5Q241.07-22.95 238.07-22.95L238.07-22.95Q236.02-22.95 234.74-23.93 233.47-24.9 232.32-26.75L232.32-26.75Q231.27-23.1 231.27-19.45 231.27-15.8 231.62-14L231.62-14Q232.57-8.7 236.27-8.7L236.27-8.7Q237.12-8.7 238.07-8.95L238.07-8.95 237.12-14.7Q237.22-14.95 237.44-15.28 237.67-15.6 238.77-16.18 239.87-16.75 241.42-16.75L241.42-16.75Q244.32-16.75 244.32-14.1L244.32-14.1 243.77-5Q243.57-1.3 242.47-0.4L242.47-0.4Q241.22 0.7 239.57-0.05L239.57-0.05 239.17-2.5Q236.67 0 232.27 0L232.27 0Q228.02 0 224.62-3.1L224.62-3.1Q222.82-4.75 221.74-8.05 220.67-11.35 220.67-15.9L220.67-15.9Q220.67-22.35 223.19-26.45 225.72-30.55 229.37-32.35L229.37-32.35Q229.87-33.45 231.04-34.45 232.22-35.45 234.24-35.45 236.27-35.45 238.87-34.08 241.47-32.7 243.32-32.7ZM266.32-14.5L266.32-14.5Q266.32-7.45 263.22-3.73 260.12 0 255.47 0L255.47 0Q252.22 0 249.62-2.3L249.62-2.3Q248.22-3.5 247.37-5.93 246.52-8.35 246.52-11.7L246.52-11.7Q246.52-16.75 248.42-19.43 250.32-22.1 252.52-22.65L252.52-22.65Q253.32-25.1 255.87-26.1L255.87-26.1Q257.02-26.5 258.42-26.5L258.42-26.5Q266.32-26.5 266.32-14.5ZM253.67-13.6L253.67-13.6Q253.67-6 256.37-6L256.37-6Q258.77-6 258.77-13.15L258.77-13.15Q258.77-16.65 257.64-18.07 256.52-19.5 254.52-19.5L254.52-19.5Q253.67-17.9 253.67-13.6ZM302.16-32.7L302.16-32.7Q302.41-30.35 302.41-29.55 302.41-28.75 302.38-27.9 302.36-27.05 302.01-26.18 301.66-25.3 301.06-24.5L301.06-24.5Q299.91-22.95 296.91-22.95L296.91-22.95Q294.86-22.95 293.58-23.93 292.31-24.9 291.16-26.75L291.16-26.75Q290.11-23.1 290.11-19.45 290.11-15.8 290.46-14L290.46-14Q291.41-8.7 295.11-8.7L295.11-8.7Q295.96-8.7 296.91-8.95L296.91-8.95 295.96-14.7Q296.06-14.95 296.29-15.28 296.51-15.6 297.61-16.18 298.71-16.75 300.26-16.75L300.26-16.75Q303.16-16.75 303.16-14.1L303.16-14.1 302.61-5Q302.41-1.3 301.31-0.4L301.31-0.4Q300.06 0.7 298.41-0.05L298.41-0.05 298.01-2.5Q295.51 0 291.11 0L291.11 0Q286.86 0 283.46-3.1L283.46-3.1Q281.66-4.75 280.58-8.05 279.51-11.35 279.51-15.9L279.51-15.9Q279.51-22.35 282.04-26.45 284.56-30.55 288.21-32.35L288.21-32.35Q288.71-33.45 289.88-34.45 291.06-35.45 293.08-35.45 295.11-35.45 297.71-34.08 300.31-32.7 302.16-32.7ZM322.46-7.15L322.46-7.15Q323.01-6.6 323.01-5.7 323.01-4.8 322.53-3.88 322.06-2.95 321.13-2.08 320.21-1.2 318.51-0.6 316.81 0 314.78 0 312.76 0 311.16-0.58 309.56-1.15 308.11-2.4L308.11-2.4Q304.96-5.2 304.96-11.55 304.96-17.9 307.11-20.98 309.26-24.05 312.01-24.35L312.01-24.35Q314.01-26.5 316.83-26.5 319.66-26.5 321.43-24.45 323.21-22.4 323.21-18.85L323.21-18.85Q323.21-14.7 320.16-12.3L320.16-12.3Q317.66-10.3 314.16-9.25L314.16-9.25Q315.91-6.95 319.96-6.95L319.96-6.95Q321.11-6.95 322.46-7.15ZM316.26-16.4L316.26-16.4Q316.26-19.45 312.51-19.75L312.51-19.75 312.51-15.25Q312.51-13 312.91-11.65L312.91-11.65Q316.26-13.5 316.26-16.4ZM338.75-25.4L338.75-25.4Q339.25-24.15 339.25-22.78 339.25-21.4 339.18-20.78 339.11-20.15 338.56-19.43 338-18.7 337.11-18.7 336.2-18.7 334.5-18.8L334.5-18.8 334.5-11.45Q334.5-6.55 338.75-4.95L338.75-4.95Q338.75-3.1 337.48-1.55 336.2 0 334 0L334 0Q330.81 0 328.86-2.35 326.9-4.7 326.9-8.45L326.9-8.45 326.9-19.35Q325.61-19.7 324.56-20.2L324.56-20.2 324.5-20.8Q324.5-24.2 326.86-25.35L326.86-25.35Q326.65-28.8 326-30.8L326-30.8 325.81-31.5Q326-31.75 326.38-32.15 326.75-32.55 328-33.2 329.25-33.85 330.61-33.85L330.61-33.85Q334.5-33.85 334.5-27.6L334.5-27.6 334.5-25.55Q336.11-25.4 338.75-25.4ZM355.1-7.05L354.6-23.25Q351.65-23.25 351.65-28.85L351.65-28.85Q351.65-30.4 352-31.95L352-31.95 352.55-34.85Q358.4-35.85 362.4-35.85L362.4-35.85Q364.2-35.85 365.22-34.6 366.25-33.35 366.4-31.9 366.55-30.45 366.55-29.55L366.55-29.55Q366.55-26.95 366.15-25L366.15-25 365.9-23.75Q364.7-23.75 364.15-23.7L364.15-23.7 363.2-7.6Q364.55-7.55 365.17-6.8 365.8-6.05 365.8-5.1L365.8-5.1Q365.8-2.9 365-1L365-1 364.65-0.25Q360.6 0 356.05 0L356.05 0Q354.7 0 353.88-0.7 353.05-1.4 352.88-2.35 352.7-3.3 352.7-3.8L352.7-3.8Q352.7-5.3 352.9-6.1L352.9-6.1 353.1-6.8 355.1-7.05ZM382.15-25.4L382.15-25.4Q382.65-24.15 382.65-22.78 382.65-21.4 382.57-20.78 382.5-20.15 381.95-19.43 381.4-18.7 380.5-18.7 379.6-18.7 377.9-18.8L377.9-18.8 377.9-11.45Q377.9-6.55 382.15-4.95L382.15-4.95Q382.15-3.1 380.87-1.55 379.6 0 377.4 0L377.4 0Q374.2 0 372.25-2.35 370.3-4.7 370.3-8.45L370.3-8.45 370.3-19.35Q369-19.7 367.95-20.2L367.95-20.2 367.9-20.8Q367.9-24.2 370.25-25.35L370.25-25.35Q370.05-28.8 369.4-30.8L369.4-30.8 369.2-31.5Q369.4-31.75 369.77-32.15 370.15-32.55 371.4-33.2 372.65-33.85 374-33.85L374-33.85Q377.9-33.85 377.9-27.6L377.9-27.6 377.9-25.55Q379.5-25.4 382.15-25.4Z"/></svg></g></svg></g></svg></g></svg></g></svg></g><defs><mask/></defs><mask><g id="SvgjsG3822"><svg width="302.47823934508006" height="247.2" viewBox="0 0 302.47823934508006 247.2"><g><svg width="302.47823934508006" height="247.2" viewBox="0 0 353.364435956511 288.7866867963185"><g><svg width="353.364435956511" height="288.7866867963185" viewBox="0 0 353.364435956511 288.7866867963185"><g id="SvgjsG3821"><svg id="SvgjsSvg3820" width="353.364435956511" height="288.7866867963185" viewBox="0 0 353.364435956511 288.7866867963185"><g><rect data-stroke-palette-color="tertiary" stroke="url(#8d1acd55-420e-4bd1-aec1-b88899217105)" stroke-width="8.962371322224001" fill="black" height="246.672304" width="353.364435956511"/><rect fill="black" y="246.672304" height="149.061670452" width="353.364435956511"/></g><g><svg width="353.364435956511" height="245.672304" viewBox="0 0 353.364435956511 245.672304"><g transform="matrix(1,0,0,1,23.461705032,23.461705032)"><svg data-palette-color="url(#eb50a414-9ecf-464a-9b29-bfd806d4d9f3)" height="198.748893936" viewBox="-5 -32.95 52.5 34.050000000000004" width="306.441025892511"><path id="SvgjsPath3819" class="wordmark-text-0" fill="black" transform="matrix(1,0,0,1,0,0)" opacity="1" d="M6.15 1.1L5.1 0.85Q6.3-4.6 6.3-14.83 6.3-25.05 5.85-29.9L5.85-29.9Q0.3-29.8-1.25-28.3L-1.25-28.3Q-1.6-27.6-1.6-26.1-1.6-24.6-1.1-24.05L-1.1-24.05-1.15-23.7Q-2.4-22.95-3.65-21.6L-3.65-21.6Q-4.25-21.65-4.63-22.1-5-22.55-5-23.15L-5-23.15Q-5-25.45-2.38-28.6 0.25-31.75 2.65-32.95L2.65-32.95Q6.9-32.55 15.25-32.55L15.25-32.55Q28.9-32.55 28.9-19.3L28.9-19.3Q28.9-12.35 25.25-6.7 21.6-1.05 15.35 0.75L15.35 0.75Q11.75 0.75 7.3-1.15L7.3-1.15Q6.45 0.15 6.15 1.1L6.15 1.1ZM14.45-30.2L14.45-30.2Q12.15-30.2 10.6-29.95L10.6-29.95Q10.15-25.25 10.15-16.95 10.15-8.65 10.4-4.25L10.4-4.25Q13.1-2.85 16.55-2.85 20-2.85 21.9-4.55L21.9-4.55Q24.45-9.2 24.45-16.05 24.45-22.9 22.33-26.55 20.2-30.2 14.45-30.2ZM41.9-30.8L41.9-30.8Q41.35-27.05 41.35-16.8 41.35-6.55 42-1.75L42-1.75Q44.65-1.5 47.5-0.8L47.5-0.8 47.35 0.4Q43.65 0 39.32 0 35 0 32.35 0.4L32.35 0.4 32.15-0.85Q34.4-1.55 36.95-1.9L36.95-1.9Q37.5-6 37.5-14.8L37.5-14.8 37.5-17.75Q37.5-25.85 36.85-30.65L36.85-30.65Q34.3-31 32.05-31.7L32.05-31.7 32.25-32.95Q34.9-32.55 39.22-32.55 43.55-32.55 47.25-32.95L47.25-32.95 47.4-31.75Q44.55-31.05 41.9-30.8Z"/></svg></g></svg></g><g transform="matrix(1,0,0,1,0,245.672304)"><svg width="353.364435956511" height="43.114382796318544" viewBox="0 0 353.364435956511 43.114382796318544"><g transform="matrix(1,0,0,1,20,3.2)"><svg data-palette-color="#000000" height="36.714382796318546" viewBox="0.75 -38.2 381.9 44.75" width="313.364435956511"><path id="SvgjsPath3818" class="slogan-text-1" fill="black" transform="matrix(1,0,0,1,0,0)" opacity="1" d="M4.2-7.05L3.7-23.25Q0.75-23.25 0.75-28.85L0.75-28.85Q0.75-30.4 1.1-31.95L1.1-31.95 1.65-34.85Q7.5-35.85 11.5-35.85L11.5-35.85Q13.3-35.85 14.33-34.6 15.35-33.35 15.5-31.9 15.65-30.45 15.65-29.55L15.65-29.55Q15.65-26.95 15.25-25L15.25-25 15-23.75Q13.8-23.75 13.25-23.7L13.25-23.7 12.3-7.6Q13.65-7.55 14.28-6.8 14.9-6.05 14.9-5.1L14.9-5.1Q14.9-2.9 14.1-1L14.1-1 13.75-0.25Q9.7 0 5.15 0L5.15 0Q3.8 0 2.98-0.7 2.15-1.4 1.98-2.35 1.8-3.3 1.8-3.8L1.8-3.8Q1.8-5.3 2-6.1L2-6.1 2.2-6.8 4.2-7.05ZM31.25-25.4L31.25-25.4Q31.75-24.15 31.75-22.78 31.75-21.4 31.67-20.78 31.6-20.15 31.05-19.43 30.5-18.7 29.6-18.7 28.7-18.7 27-18.8L27-18.8 27-11.45Q27-6.55 31.25-4.95L31.25-4.95Q31.25-3.1 29.97-1.55 28.7 0 26.5 0L26.5 0Q23.3 0 21.35-2.35 19.4-4.7 19.4-8.45L19.4-8.45 19.4-19.35Q18.1-19.7 17.05-20.2L17.05-20.2 17-20.8Q17-24.2 19.35-25.35L19.35-25.35Q19.15-28.8 18.5-30.8L18.5-30.8 18.3-31.5Q18.5-31.75 18.87-32.15 19.25-32.55 20.5-33.2 21.75-33.85 23.1-33.85L23.1-33.85Q27-33.85 27-27.6L27-27.6 27-25.55Q28.6-25.4 31.25-25.4ZM33.05-31.8L33.05-31.8Q34.49-33.1 36.3-33.1 38.09-33.1 38.84-32.35 39.59-31.6 39.59-30L39.59-30Q39.59-26.9 38.8-21.9L38.8-21.9 38.55-20.1Q37.59-19.75 36.84-19.75L36.84-19.75Q35.09-19.75 34.24-21.65L34.24-21.65Q33.05-24.35 33.05-31.8ZM48.24-20.55L48.24-20.1Q48.24-18.1 51.84-16.5L51.84-16.5Q53.29-15.8 54.77-14.98 56.24-14.15 57.29-12.58 58.34-11 58.34-8.75L58.34-8.75Q58.34-4.8 55.67-2.4 52.99 0 49.07 0 45.14 0 42.99-1.73 40.84-3.45 40.84-5.35L40.84-5.35Q40.84-6.65 41.47-7.68 42.09-8.7 42.74-9.05L42.74-9.05 43.34-9.4Q43.64-8.95 44.22-8.28 44.79-7.6 46.49-6.5 48.19-5.4 49.42-5.4 50.64-5.4 51.12-5.78 51.59-6.15 51.59-6.6L51.59-6.6Q51.59-7.45 50.02-8.4 48.44-9.35 46.59-10.18 44.74-11 43.17-12.6 41.59-14.2 41.59-16.25 41.59-18.3 42.82-20.15 44.04-22 45.69-22.75L45.69-22.75Q45.94-24.35 47.72-25.55 49.49-26.75 52.19-26.75 54.89-26.75 56.54-25.5 58.19-24.25 58.19-22.15 58.19-20.05 57.59-19.1 56.99-18.15 55.69-17.6L55.69-17.6Q53.49-20.05 48.24-20.55L48.24-20.55ZM94.84-10.5L94.84-10.5Q94.84-5.9 91.69-2.95 88.54 0 82.64 0 76.74 0 74.34-1.73 71.94-3.45 71.94-5.55L71.94-5.55Q71.94-7.45 72.44-8.3L72.44-8.3Q73.29-9.75 74.09-10.25L74.09-10.25Q76.04-8.8 78.56-7.6 81.09-6.4 82.39-6.4 83.69-6.4 84.24-6.65 84.79-6.9 84.89-7.18 84.99-7.45 84.99-7.95L84.99-7.95Q84.99-8.9 83.64-9.78 82.29-10.65 80.36-11.58 78.44-12.5 76.54-13.68 74.64-14.85 73.29-16.9 71.94-18.95 71.94-21.43 71.94-23.9 73.09-26 74.24-28.1 75.99-29.45L75.99-29.45Q76.09-31.85 78.86-33.75 81.64-35.65 86.49-35.65L86.49-35.65Q95.39-35.65 95.39-28.2L95.39-28.2Q95.39-23.65 91.39-22L91.39-22Q88.64-25 81.14-26.4L81.14-26.4Q81.34-23.5 84.04-21.6L84.04-21.6Q85.29-20.75 86.74-19.98 88.19-19.2 89.61-18.35 91.04-17.5 92.24-16.5L92.24-16.5Q94.84-14.25 94.84-10.5ZM101.94 0L101.94 0Q97.84 0 97.84-5.9L97.84-5.9Q97.84-20.9 98.19-25.65L98.19-25.65Q99.24-26.7 101.54-26.7L101.54-26.7Q105.49-26.7 105.49-20.45L105.49-20.45 105.49-5.6 106.59-3.05Q106.39-2.7 106.04-2.2 105.69-1.7 104.49-0.85 103.29 0 101.94 0ZM105.69-33.77Q105.69-31.7 104.69-30.38 103.69-29.05 101.66-29.05 99.64-29.05 98.66-30.53 97.69-32 97.04-35.05L97.04-35.05Q97.24-35.4 97.59-35.93 97.94-36.45 99.11-37.33 100.29-38.2 101.54-38.2L101.54-38.2Q103.84-38.2 104.76-37.02 105.69-35.85 105.69-33.77ZM116.68-20.2L116.68-5.9Q116.68-3.45 117.28-2.25L117.28-2.25Q116.98-1.45 115.61-0.73 114.23 0 112.56 0 110.88 0 109.96-1.03 109.03-2.05 109.03-3.8L109.03-3.8 109.03-16.5Q109.03-20.65 108.23-23.4L108.23-23.4 107.93-24.35Q108.13-24.6 108.51-25 108.88-25.4 110.13-26.05 111.38-26.7 112.73-26.7L112.73-26.7Q115.63-26.7 116.38-23.3L116.38-23.3Q118.08-26.5 122.16-26.5 126.23-26.5 127.88-22.8L127.88-22.8Q128.48-24.35 129.98-25.43 131.48-26.5 134.08-26.5 136.68-26.5 138.48-24.53 140.28-22.55 140.28-19.1L140.28-19.1 140.28-5.6 141.33-3.05Q141.13-2.7 140.78-2.2 140.43-1.7 139.26-0.85 138.08 0 136.73 0L136.73 0Q132.58 0 132.58-5.9L132.58-5.9 132.58-15.55Q132.58-18.2 131.68-19.15 130.78-20.1 128.53-20.2L128.53-20.2 128.58-19.1 128.58-5.9Q128.58-3.55 129.18-2.25L129.18-2.25Q129.03-2 128.76-1.63 128.48-1.25 127.28-0.63 126.08 0 124.41 0 122.73 0 121.81-1.05 120.88-2.1 120.88-3.8L120.88-3.8 120.88-15.55Q120.88-18.2 119.98-19.15 119.08-20.1 116.68-20.2L116.68-20.2ZM151.68 0L151.68 5.45Q150.08 6.55 147.93 6.55 145.78 6.55 144.91 5.7 144.03 4.85 144.03 2.95L144.03 2.95 144.03-20.9 142.93-24.35Q143.13-24.6 143.5-25 143.88-25.4 145.13-26.05 146.38-26.7 147.73-26.7L147.73-26.7Q150.33-26.7 151.23-23.85L151.23-23.85Q153.88-26.5 157.16-26.5 160.43-26.5 162.21-24.48 163.98-22.45 163.98-19.1L163.98-19.1 163.98-12.6Q163.98-8 160.38-4 156.78 0 152.38 0L152.38 0 151.68 0ZM151.68-19.75L151.68-6.4Q152.43-5.8 153.63-5.8 154.83-5.8 155.58-6.55 156.33-7.3 156.33-8.65L156.33-8.65 156.33-15.9Q156.33-18.55 155.03-19.5L155.03-19.5Q154.23-20 153.38-20 152.53-20 151.68-19.75L151.68-19.75ZM167.18-5.9L167.18-5.9 167.18-24.9Q167.18-29.05 166.38-31.8L166.38-31.8 166.08-32.75Q166.28-33 166.65-33.4 167.03-33.8 168.28-34.48 169.53-35.15 170.88-35.15L170.88-35.15Q174.83-35.15 174.83-28.9L174.83-28.9 174.83-5.6 175.93-3.05Q175.73-2.7 175.38-2.2 175.03-1.7 173.83-0.85 172.63 0 171.28 0L171.28 0Q167.18 0 167.18-5.9ZM195.07-7.15L195.07-7.15Q195.63-6.6 195.63-5.7 195.63-4.8 195.15-3.88 194.68-2.95 193.75-2.08 192.82-1.2 191.13-0.6 189.43 0 187.4 0 185.38 0 183.78-0.58 182.18-1.15 180.72-2.4L180.72-2.4Q177.57-5.2 177.57-11.55 177.57-17.9 179.72-20.98 181.88-24.05 184.63-24.35L184.63-24.35Q186.63-26.5 189.45-26.5 192.28-26.5 194.05-24.45 195.82-22.4 195.82-18.85L195.82-18.85Q195.82-14.7 192.78-12.3L192.78-12.3Q190.28-10.3 186.78-9.25L186.78-9.25Q188.53-6.95 192.57-6.95L192.57-6.95Q193.72-6.95 195.07-7.15ZM188.88-16.4L188.88-16.4Q188.88-19.45 185.13-19.75L185.13-19.75 185.13-15.25Q185.13-13 185.53-11.65L185.53-11.65Q188.88-13.5 188.88-16.4ZM207.37-2.05L207.37-2.05Q207.37 1 205.87 3 204.37 5 201.97 5L201.97 5Q201.02 5 200.35 4.7 199.67 4.4 199.52 4.1L199.52 4.1 199.32 3.75Q200.07 2.4 200.07 0.88 200.07-0.65 199.5-1.75 198.92-2.85 198.32-3.3L198.32-3.3 197.77-3.75Q197.77-5.6 199.05-6.65 200.32-7.7 202.57-7.7L202.57-7.7Q207.37-7.7 207.37-2.05ZM243.32-32.7L243.32-32.7Q243.57-30.35 243.57-29.55 243.57-28.75 243.54-27.9 243.52-27.05 243.17-26.18 242.82-25.3 242.22-24.5L242.22-24.5Q241.07-22.95 238.07-22.95L238.07-22.95Q236.02-22.95 234.74-23.93 233.47-24.9 232.32-26.75L232.32-26.75Q231.27-23.1 231.27-19.45 231.27-15.8 231.62-14L231.62-14Q232.57-8.7 236.27-8.7L236.27-8.7Q237.12-8.7 238.07-8.95L238.07-8.95 237.12-14.7Q237.22-14.95 237.44-15.28 237.67-15.6 238.77-16.18 239.87-16.75 241.42-16.75L241.42-16.75Q244.32-16.75 244.32-14.1L244.32-14.1 243.77-5Q243.57-1.3 242.47-0.4L242.47-0.4Q241.22 0.7 239.57-0.05L239.57-0.05 239.17-2.5Q236.67 0 232.27 0L232.27 0Q228.02 0 224.62-3.1L224.62-3.1Q222.82-4.75 221.74-8.05 220.67-11.35 220.67-15.9L220.67-15.9Q220.67-22.35 223.19-26.45 225.72-30.55 229.37-32.35L229.37-32.35Q229.87-33.45 231.04-34.45 232.22-35.45 234.24-35.45 236.27-35.45 238.87-34.08 241.47-32.7 243.32-32.7ZM266.32-14.5L266.32-14.5Q266.32-7.45 263.22-3.73 260.12 0 255.47 0L255.47 0Q252.22 0 249.62-2.3L249.62-2.3Q248.22-3.5 247.37-5.93 246.52-8.35 246.52-11.7L246.52-11.7Q246.52-16.75 248.42-19.43 250.32-22.1 252.52-22.65L252.52-22.65Q253.32-25.1 255.87-26.1L255.87-26.1Q257.02-26.5 258.42-26.5L258.42-26.5Q266.32-26.5 266.32-14.5ZM253.67-13.6L253.67-13.6Q253.67-6 256.37-6L256.37-6Q258.77-6 258.77-13.15L258.77-13.15Q258.77-16.65 257.64-18.07 256.52-19.5 254.52-19.5L254.52-19.5Q253.67-17.9 253.67-13.6ZM302.16-32.7L302.16-32.7Q302.41-30.35 302.41-29.55 302.41-28.75 302.38-27.9 302.36-27.05 302.01-26.18 301.66-25.3 301.06-24.5L301.06-24.5Q299.91-22.95 296.91-22.95L296.91-22.95Q294.86-22.95 293.58-23.93 292.31-24.9 291.16-26.75L291.16-26.75Q290.11-23.1 290.11-19.45 290.11-15.8 290.46-14L290.46-14Q291.41-8.7 295.11-8.7L295.11-8.7Q295.96-8.7 296.91-8.95L296.91-8.95 295.96-14.7Q296.06-14.95 296.29-15.28 296.51-15.6 297.61-16.18 298.71-16.75 300.26-16.75L300.26-16.75Q303.16-16.75 303.16-14.1L303.16-14.1 302.61-5Q302.41-1.3 301.31-0.4L301.31-0.4Q300.06 0.7 298.41-0.05L298.41-0.05 298.01-2.5Q295.51 0 291.11 0L291.11 0Q286.86 0 283.46-3.1L283.46-3.1Q281.66-4.75 280.58-8.05 279.51-11.35 279.51-15.9L279.51-15.9Q279.51-22.35 282.04-26.45 284.56-30.55 288.21-32.35L288.21-32.35Q288.71-33.45 289.88-34.45 291.06-35.45 293.08-35.45 295.11-35.45 297.71-34.08 300.31-32.7 302.16-32.7ZM322.46-7.15L322.46-7.15Q323.01-6.6 323.01-5.7 323.01-4.8 322.53-3.88 322.06-2.95 321.13-2.08 320.21-1.2 318.51-0.6 316.81 0 314.78 0 312.76 0 311.16-0.58 309.56-1.15 308.11-2.4L308.11-2.4Q304.96-5.2 304.96-11.55 304.96-17.9 307.11-20.98 309.26-24.05 312.01-24.35L312.01-24.35Q314.01-26.5 316.83-26.5 319.66-26.5 321.43-24.45 323.21-22.4 323.21-18.85L323.21-18.85Q323.21-14.7 320.16-12.3L320.16-12.3Q317.66-10.3 314.16-9.25L314.16-9.25Q315.91-6.95 319.96-6.95L319.96-6.95Q321.11-6.95 322.46-7.15ZM316.26-16.4L316.26-16.4Q316.26-19.45 312.51-19.75L312.51-19.75 312.51-15.25Q312.51-13 312.91-11.65L312.91-11.65Q316.26-13.5 316.26-16.4ZM338.75-25.4L338.75-25.4Q339.25-24.15 339.25-22.78 339.25-21.4 339.18-20.78 339.11-20.15 338.56-19.43 338-18.7 337.11-18.7 336.2-18.7 334.5-18.8L334.5-18.8 334.5-11.45Q334.5-6.55 338.75-4.95L338.75-4.95Q338.75-3.1 337.48-1.55 336.2 0 334 0L334 0Q330.81 0 328.86-2.35 326.9-4.7 326.9-8.45L326.9-8.45 326.9-19.35Q325.61-19.7 324.56-20.2L324.56-20.2 324.5-20.8Q324.5-24.2 326.86-25.35L326.86-25.35Q326.65-28.8 326-30.8L326-30.8 325.81-31.5Q326-31.75 326.38-32.15 326.75-32.55 328-33.2 329.25-33.85 330.61-33.85L330.61-33.85Q334.5-33.85 334.5-27.6L334.5-27.6 334.5-25.55Q336.11-25.4 338.75-25.4ZM355.1-7.05L354.6-23.25Q351.65-23.25 351.65-28.85L351.65-28.85Q351.65-30.4 352-31.95L352-31.95 352.55-34.85Q358.4-35.85 362.4-35.85L362.4-35.85Q364.2-35.85 365.22-34.6 366.25-33.35 366.4-31.9 366.55-30.45 366.55-29.55L366.55-29.55Q366.55-26.95 366.15-25L366.15-25 365.9-23.75Q364.7-23.75 364.15-23.7L364.15-23.7 363.2-7.6Q364.55-7.55 365.17-6.8 365.8-6.05 365.8-5.1L365.8-5.1Q365.8-2.9 365-1L365-1 364.65-0.25Q360.6 0 356.05 0L356.05 0Q354.7 0 353.88-0.7 353.05-1.4 352.88-2.35 352.7-3.3 352.7-3.8L352.7-3.8Q352.7-5.3 352.9-6.1L352.9-6.1 353.1-6.8 355.1-7.05ZM382.15-25.4L382.15-25.4Q382.65-24.15 382.65-22.78 382.65-21.4 382.57-20.78 382.5-20.15 381.95-19.43 381.4-18.7 380.5-18.7 379.6-18.7 377.9-18.8L377.9-18.8 377.9-11.45Q377.9-6.55 382.15-4.95L382.15-4.95Q382.15-3.1 380.87-1.55 379.6 0 377.4 0L377.4 0Q374.2 0 372.25-2.35 370.3-4.7 370.3-8.45L370.3-8.45 370.3-19.35Q369-19.7 367.95-20.2L367.95-20.2 367.9-20.8Q367.9-24.2 370.25-25.35L370.25-25.35Q370.05-28.8 369.4-30.8L369.4-30.8 369.2-31.5Q369.4-31.75 369.77-32.15 370.15-32.55 371.4-33.2 372.65-33.85 374-33.85L374-33.85Q377.9-33.85 377.9-27.6L377.9-27.6 377.9-25.55Q379.5-25.4 382.15-25.4Z"/></svg></g></svg></g></svg></g></svg></g></svg></g><defs><mask/></defs></svg><rect visibility="hidden" stroke="none" fill="black" height="247.2" width="302.47823934508006"/></g></mask></svg><rect visibility="hidden" stroke="none" fill="black" height="247.2" width="302.47823934508006"/></g></mask><linearGradient id="8d1acd55-420e-4bd1-aec1-b88899217105" y2="0.5" y1="0.5" x2="1" x1="0"><stop offset="0" stop-color="#ffa62e"/><stop offset="1" stop-color="#f71b3d"/></linearGradient></svg><rect visibility="hidden" stroke="none" fill="none" height="247.2" width="302.47823934508006"/></g></svg></g></svg>